<?xml version="1.0" encoding="utf-8"?>
<!-- Generator: Adobe Illustrator 23.1.1, SVG Export Plug-In . SVG Version: 6.00 Build 0)  -->
<svg version="1.1" id="Layer_1" xmlns="http://www.w3.org/2000/svg" xmlns:xlink="http://www.w3.org/1999/xlink" x="0px" y="0px"
	 width="500px" height="272px" viewBox="0 0 500 272" style="enable-background:new 0 0 500 272;" xml:space="preserve">
<style type="text/css">
	.st0{fill:#FFFFFF;}
	.st1{fill:#FF6A31;}
	.st2{fill:#111111;}
	.st3{fill:#34CFFF;}
</style>
<g>
	<g>
		<path class="st0" d="M0,210.6v-56.2h14.4V198H31v12.6H0z"/>
		<path class="st0" d="M44.2,210.6v-56.2h14.4v56.2H44.2z"/>
		<path class="st0" d="M77.3,210.6v-56.2h18c4,0,7,0.2,9,0.7c6.4,1.4,11.7,6.4,11.7,14c0,4.8-2.3,9-6.5,11.4
			c6.2,2.1,9.3,6.6,9.3,13.1c0,5.4-2.3,10.3-6.5,13.3c-4.4,3.1-7.3,3.8-16.2,3.8H77.3z M96.7,175.7c3.6,0,5.5-1.5,5.5-4.5
			c0-3-1.8-4.3-5.4-4.3H91v8.7H96.7z M98.4,198c4,0,6.5-1.7,6.5-5.4c0-3.3-2.2-4.9-6.5-4.9H91V198H98.4z"/>
		<path class="st0" d="M134.9,210.6v-56.2h31.2V167h-17.5v8.7h16.9v12.6h-16.9v9.6h17.5v12.6H134.9z"/>
		<path class="st0" d="M214.5,210.6l-16.6-22.1v4v18.2h-13.8v-56.2h18.4c5.9,0,10.3,0.8,13.3,2.1c6.1,2.7,10.3,9.3,10.3,17.3
			c0,8.2-4.5,15-11.9,17.2l14.6,19.6H214.5z M203.3,182.6c5.7,0,9.2-2.7,9.2-8.1c0-4.9-3.6-7.6-9-7.6h-5.5v15.7H203.3z"/>
		<path class="st0" d="M278.1,210.6l-2.7-8.1h-19.5l-3,8.1h-15.4l22.6-56.2h11.3l22.3,56.2H278.1z M265.8,174l-0.2-0.1l-5.8,17.2
			h11.8L265.8,174z"/>
		<path class="st0" d="M308.7,210.6V167h-11.1v-12.6h36.5V167h-11v43.6H308.7z"/>
		<path class="st0" d="M347.4,210.6v-56.2h14.4v56.2H347.4z"/>
		<path class="st0" d="M377.8,183.8c0-17.4,12.5-30.5,29.6-30.5c16.4,0,29.7,12.7,29.7,28.8c0,16.6-12.9,29.6-29,29.6
			C392.5,211.7,377.8,200.4,377.8,183.8z M422.8,182.6c0-8.8-6.3-16.6-15.3-16.6c-9,0-15.3,7.5-15.3,16.4c0,9.3,6.3,16.7,15.5,16.7
			C416.6,199.1,422.8,191.5,422.8,182.6z"/>
		<path class="st0" d="M487.5,210.6L466,176.3l0.4,34.3h-13.8v-56.2H465l21.9,35.6l-0.6-35.6H500v56.2H487.5z"/>
	</g>
	<g>
		<path class="st3" d="M120,256.6c1.5-1.4,2.1-2.8,2.1-5c0-4.4-3.3-7.4-8.1-7.4h-7.4v26.7h8.5c5.1,0,8.6-3.2,8.6-7.9
			C123.7,260.2,122.5,258.1,120,256.6z M113.8,255H111v-6.7h2.6c2.7,0,4.1,1.1,4.1,3.4C117.7,253.8,116.3,255,113.8,255z M111,259.2
			h3.9c3.4,0,4.3,2.4,4.3,3.8c0,2.3-1.8,3.8-4.4,3.8H111V259.2z"/>
		<path class="st3" d="M143.8,244.2h-3.9l-10.1,26.7h4.7l2.9-7.7h8.9l2.9,7.7h4.7l-10.1-26.5L143.8,244.2z M144.8,259.1h-5.9
			l2.9-8.8L144.8,259.1z"/>
		<path class="st3" d="M179.6,253.2c0-5.9-3.2-9-9.4-9h-8.7v26.7h4.4v-11.5l8.2,11.5h5.6l-7.3-9.8
			C176.1,260.8,179.6,258,179.6,253.2z M166,248.3h3.7c3.3,0,5.5,1.8,5.5,4.5c0,4-3.6,4.8-6.7,4.8H166V248.3z"/>
		<path class="st3" d="M202.2,256.6c1.5-1.4,2.1-2.8,2.1-5c0-4.4-3.3-7.4-8.1-7.4h-7.4v26.7h8.5c5.1,0,8.6-3.2,8.6-7.9
			C205.9,260.2,204.7,258.1,202.2,256.6z M193.2,255v-6.7h2.6c2.7,0,4.1,1.1,4.1,3.4c0,2.2-1.4,3.3-3.8,3.3H193.2z M201.5,263
			c0,2.3-1.8,3.8-4.4,3.8h-3.8v-7.6h3.9C200.5,259.2,201.5,261.6,201.5,263z"/>
		<polygon class="st3" points="215,270.9 229.7,270.9 229.7,266.8 219.4,266.8 219.4,259.5 229.7,259.5 229.7,255.3 219.4,255.3 
			219.4,248.3 229.7,248.3 229.7,244.2 215,244.2 		"/>
		<polygon class="st3" points="243.9,244.2 239.5,244.2 239.5,270.9 253,270.9 253,266.8 243.9,266.8 		"/>
		<polygon class="st3" points="265.2,244.2 260.8,244.2 260.8,270.9 274.3,270.9 274.3,266.8 265.2,266.8 		"/>
		<path class="st3" d="M306.2,247.8c2.7,0,5,1.1,7.1,3.6l0.1,0.1h5.3l-0.3-0.5c-2.5-4.7-7.1-7.3-12.5-7.3c-7.5,0-13.5,6.3-13.5,14
			c0,7.3,6.3,13.7,13.5,13.7c5.4,0,9.6-2.5,12.3-7.1l0.3-0.5h-5.4l-0.1,0.1c-2,2.3-4.3,3.3-7,3.3c-5.1,0-9.2-4.5-9.2-10
			C296.9,252.1,301.2,247.8,306.2,247.8z"/>
		<polygon class="st3" points="331.5,244.2 327.1,244.2 327.1,270.9 340.6,270.9 340.6,266.8 331.5,266.8 		"/>
		<path class="st3" d="M361.4,262c0,3.2-1.8,5.2-4.6,5.2c-2.8,0-4.6-2-4.6-5.2v-17.9h-4.4v18.1c0,5.3,3.7,9.1,9.1,9.1
			s9.1-3.7,9.1-9.1v-18.1h-4.4V262z"/>
		<path class="st3" d="M389.8,256.6c1.5-1.4,2.1-2.8,2.1-5c0-4.4-3.3-7.4-8.1-7.4h-7.4v26.7h8.5c5.1,0,8.6-3.2,8.6-7.9
			C393.4,260.2,392.2,258.1,389.8,256.6z M380.8,255v-6.7h2.6c2.7,0,4.1,1.1,4.1,3.4c0,2.2-1.4,3.3-3.8,3.3H380.8z M389,263
			c0,2.3-1.8,3.8-4.4,3.8h-3.8v-7.6h3.9C388.1,259.2,389,261.6,389,263z"/>
	</g>
	<g>
		<path class="st3" d="M104.3,76.7v-13h7.2v2.9h-4v2h3.9v2.9h-3.9v2.2h4v2.9H104.3z"/>
		<path class="st3" d="M123.3,67.6c-0.1-0.9-0.5-1.3-1.2-1.3c-0.6,0-1.1,0.4-1.1,1c0,0.8,0.7,1.1,2.1,1.7c2.9,1.2,3.6,2.3,3.6,4
			c0,2.5-1.7,4-4.5,4c-2.8,0-4.7-1.5-4.7-4.3v-0.3h3.3c0,1.1,0.5,1.8,1.4,1.8c0.7,0,1.2-0.5,1.2-1.2c0-1-1.4-1.5-2.6-2
			c-2.1-0.9-3.1-2-3.1-3.7c0-2.2,2.1-3.8,4.5-3.8c0.9,0,1.6,0.2,2.3,0.5c1.4,0.7,2.1,1.8,2.1,3.5H123.3z"/>
		<path class="st3" d="M134.4,76.7V66.7h-2.6v-2.9h8.4v2.9h-2.5v10.1H134.4z"/>
		<path class="st3" d="M145.8,76.7v-13h4.4c1.6,0,2.9,0.3,3.8,0.8c1.8,1.1,3,3,3,5.7c0,4.3-2.5,6.5-6.6,6.5H145.8z M150.6,73.8
			c1.9,0,3.1-1.2,3.1-3.6c0-2.3-1.2-3.6-3.1-3.6h-1.5v7.2H150.6z"/>
	</g>
	<polygon class="st1" points="250,60.3 260.8,79.1 239.1,79.1 	"/>
	<path class="st0" d="M319,98.3L262.7,0.6l-12.5,21.7l0,0l0,0L237.6,0.6l-56.4,97.6h25.1l-12.5,21.7h112.7L294,98.3H319z
		 M262.7,16.6l42.5,73.6h-15.8l-34.6-59.9L262.7,16.6z M250.1,38.4l30,51.9h-59.9L250.1,38.4z M195.1,90.2l42.5-73.6l7.9,13.7
		l-34.6,59.9H195.1z M207.6,111.9l7.9-13.7h69.2l7.9,13.7H207.6z"/>
	<g>
		<path class="st3" d="M345.8,76.7v-2.6c1.6-1,2.8-1.9,3.5-2.6c1.5-1.5,2.3-2.8,2.3-3.8c0-0.8-0.5-1.3-1.2-1.3
			c-0.9,0-1.4,0.6-1.5,2.1h-3.2c0-3,1.9-5,4.8-5c2.6,0,4.4,1.7,4.4,3.8c0,2.1-1.1,3.9-4.3,6.7h4.4v2.8H345.8z"/>
		<path class="st3" d="M369.1,72.1c0,3-2.2,4.9-4.8,4.9c-2.6,0-4.9-1.9-4.9-4.9v-3.8c0-3.1,2.4-4.8,4.9-4.8c2.6,0,4.8,1.9,4.8,4.8
			V72.1z M365.8,68.3c0-1.1-0.5-1.9-1.5-1.9c-1,0-1.5,0.8-1.5,1.9v3.9c0,1.1,0.5,1.9,1.5,1.9c1.1,0,1.5-0.7,1.5-1.9V68.3z"/>
		<path class="st3" d="M375.8,76.7V66.6h-2.1v-2.8h5.4v13H375.8z"/>
		<path class="st3" d="M386.8,76.7l2.9-4c-0.2,0.1-0.4,0.1-0.6,0.1c-2.2,0-4.2-1.8-4.2-4.4c0-2.8,2.2-4.9,5-4.9
			c2.7,0,5.2,1.6,5.2,4.8c0,1.3-0.4,2.4-1.3,3.6l-3.2,4.7H386.8z M390,66.4c-1,0-1.8,0.8-1.8,1.7c0,1,0.8,1.8,1.8,1.8
			c1,0,1.8-0.7,1.8-1.7C391.8,67.2,391,66.4,390,66.4z"/>
	</g>
</g>
</svg>
